<svg width="16" height="16" viewBox="0 0 16 16" fill="none" xmlns="http://www.w3.org/2000/svg">
<path d="M1 3.06424C1.885 2.66894 3.154 2.24266 4.388 2.11018C5.718 1.96702 6.846 2.17749 7.5 2.9136V13.326C6.565 12.7598 5.38 12.6818 4.287 12.7993C3.107 12.9275 1.917 13.2918 1 13.6657V3.06424ZM8.5 2.9136C9.154 2.17749 10.282 1.96702 11.612 2.11018C12.846 2.24266 14.115 2.66894 15 3.06424V13.6657C14.082 13.2918 12.893 12.9264 11.713 12.8004C10.619 12.6818 9.435 12.7587 8.5 13.326V2.9136ZM8 1.94779C7.015 1.04287 5.587 0.908257 4.287 1.04715C2.773 1.21061 1.245 1.7651 0.293 2.2277C0.205649 2.27015 0.131575 2.33855 0.079621 2.42475C0.0276667 2.51094 2.65714e-05 2.61129 0 2.71381L0 14.466C2.3162e-05 14.5553 0.0210371 14.6433 0.0611171 14.7217C0.101197 14.8002 0.159062 14.8666 0.229411 14.915C0.29976 14.9634 0.380345 14.9921 0.463783 14.9986C0.547222 15.0051 0.630848 14.9891 0.707 14.9521C1.589 14.5247 3.01 14.0108 4.387 13.8623C5.796 13.7106 6.977 13.9553 7.61 14.7993C7.65685 14.8617 7.71622 14.912 7.78372 14.9466C7.85122 14.9812 7.92513 14.9992 8 14.9992C8.07487 14.9992 8.14878 14.9812 8.21628 14.9466C8.28378 14.912 8.34315 14.8617 8.39 14.7993C9.023 13.9553 10.204 13.7106 11.612 13.8623C12.99 14.0108 14.412 14.5247 15.293 14.9521C15.3692 14.9891 15.4528 15.0051 15.5362 14.9986C15.6197 14.9921 15.7002 14.9634 15.7706 14.915C15.8409 14.8666 15.8988 14.8002 15.9389 14.7217C15.979 14.6433 16 14.5553 16 14.466V2.71381C16 2.61129 15.9723 2.51094 15.9204 2.42475C15.8684 2.33855 15.7944 2.27015 15.707 2.2277C14.755 1.7651 13.227 1.21061 11.713 1.04715C10.413 0.907189 8.985 1.04287 8 1.94779Z" fill="#586EDD" fill-opacity="0.65"/>
</svg>
