<svg width="24" height="18" viewBox="0 0 24 18" fill="none" xmlns="http://www.w3.org/2000/svg">
<path d="M10.1431 10.8304L0.964943 16.4561C1.15186 16.717 1.3881 16.9406 1.66175 17.1135L1.39467 17.5362L1.66175 17.1135C2.06207 17.3664 2.52599 17.5005 2.99952 17.5H3H21H21.0001C21.4736 17.5001 21.9373 17.3658 22.3374 17.1126C22.611 16.9395 22.8471 16.7158 23.0338 16.4548M10.1431 10.8304L23.0338 16.4548M10.1431 10.8304L11.7393 11.8057L12.0001 11.965L12.2608 11.8056L13.8567 10.8298L10.1431 10.8304ZM23.0338 16.4548L23.4507 16.7103L23.712 16.284L23.2601 16.07C23.196 16.2053 23.1202 16.334 23.0338 16.4548ZM2.99997 0.5H3H21H21C21.5664 0.499962 22.116 0.692255 22.5589 1.04539C22.9094 1.32492 23.1766 1.69213 23.3353 2.10695L12 9.035L0.664742 2.10695C0.823391 1.69213 1.09057 1.32492 1.44112 1.04539C1.88395 0.692255 2.43357 0.499962 2.99997 0.5ZM7.74676 9.36522L0.5 13.8084V4.93699L7.74676 9.36522ZM23.5 4.93699V13.8086L16.2521 9.36591L23.5 4.93699Z" fill="black" stroke="#00FF19"/>
</svg>
