<svg width="24" height="24" viewBox="0 0 24 24" fill="none" xmlns="http://www.w3.org/2000/svg">
<g clip-path="url(#clip0)">
<path d="M24 12.074C24 5.40502 18.627 -0.000976562 12 -0.000976562C5.37001 0.000523438 -0.00299072 5.40502 -0.00299072 12.0755C-0.00299072 18.101 4.38601 23.096 10.122 24.002V15.5645H7.07701V12.0755H10.125V9.41302C10.125 6.38752 11.9175 4.71652 14.658 4.71652C15.972 4.71652 17.3445 4.95202 17.3445 4.95202V7.92202H15.831C14.3415 7.92202 13.8765 8.85352 13.8765 9.80902V12.074H17.2035L16.6725 15.563H13.875V24.0005C19.611 23.0945 24 18.0995 24 12.074Z" fill="#004FFF"/>
</g>
<defs>
<clipPath id="clip0">
<rect width="24" height="24" fill="white"/>
</clipPath>
</defs>
</svg>
