<svg width="174" height="100" viewBox="0 0 174 100" fill="none" xmlns="http://www.w3.org/2000/svg">
<path d="M74.9202 6.95625C70.4739 8.10461 66.0578 9.35331 61.6758 10.7013C61.2757 10.8227 60.92 11.0471 60.6493 11.3487C60.3785 11.6504 60.2037 12.0172 60.1446 12.4075C57.5582 30.5944 63.5339 43.8637 70.6626 52.605C73.6808 56.343 77.2797 59.636 81.3393 62.3744C82.9546 63.4419 84.3831 64.2119 85.5082 64.7063C86.0684 64.9556 86.526 65.1219 86.8761 65.2225C87.0292 65.2728 87.1871 65.3095 87.3476 65.3319C87.5062 65.3077 87.6624 65.2711 87.8144 65.2225C88.1692 65.1219 88.6268 64.9556 89.187 64.7063C90.3074 64.2119 91.7406 63.4375 93.3559 62.3744C97.4155 59.6359 101.014 56.3429 104.033 52.605C111.161 43.8681 117.137 30.5944 114.551 12.4075C114.492 12.0171 114.317 11.65 114.047 11.3482C113.776 11.0465 113.42 10.8223 113.019 10.7013C109.98 9.76938 104.85 8.25125 99.775 6.96062C94.593 5.64375 89.8265 4.66813 87.3476 4.66813C84.8733 4.66813 80.1022 5.64375 74.9202 6.96062V6.95625ZM73.6784 2.45C78.7437 1.15938 84.1264 0 87.3476 0C90.5688 0 95.9515 1.15938 101.017 2.45C106.199 3.7625 111.423 5.31562 114.495 6.25625C115.779 6.65372 116.918 7.38266 117.78 8.35932C118.642 9.33598 119.193 10.5207 119.368 11.7775C122.151 31.3644 115.694 45.8806 107.861 55.4837C104.539 59.5918 100.578 63.2094 96.1103 66.2156C94.5654 67.2559 92.9287 68.1707 91.2177 68.95C89.9106 69.5275 88.5054 70 87.3476 70C86.1898 70 84.7893 69.5275 83.4775 68.95C81.7665 68.1707 80.1297 67.2559 78.5849 66.2156C74.1174 63.2093 70.1564 59.5917 66.8344 55.4837C59.0008 45.8806 52.5443 31.3644 55.3267 11.7775C55.5027 10.5207 56.0533 9.33598 56.9155 8.35932C57.7776 7.38266 58.9163 6.65372 60.2006 6.25625C64.6599 4.88604 69.1538 3.61692 73.6784 2.45Z" fill="#BAC7F9"/>
<line x1="87.1238" y1="4.30774" x2="87.1238" y2="65.6924" stroke="#BAC7F9" stroke-width="3"/>
<path d="M60.3424 35H114.353" stroke="#BAC7F9" stroke-width="3"/>
<path d="M70.8734 25.3846C70.3094 25.3846 69.7934 25.4086 69.3254 25.4566C68.8694 25.5046 68.5814 25.5406 68.4614 25.5646L68.5694 24.7366C69.0374 24.6646 69.3554 24.5266 69.5234 24.3226C69.7034 24.1066 69.7934 23.7406 69.7934 23.2246L69.8114 15.6646C69.8114 15.2806 69.7634 15.0226 69.6674 14.8906C69.5834 14.7586 69.4094 14.6926 69.1454 14.6926C69.0254 14.6926 68.9054 14.6986 68.7854 14.7106C68.6654 14.7226 68.5814 14.7286 68.5334 14.7286L68.4974 14.6566L68.6234 13.8646C68.7674 13.8766 69.0374 13.8886 69.4334 13.9006C69.8294 13.9126 70.2314 13.9186 70.6394 13.9186C70.9634 13.9186 71.3294 13.9006 71.7374 13.8646C72.1574 13.8166 72.4334 13.7806 72.5654 13.7566L72.4934 14.5666C72.0974 14.6146 71.8214 14.6926 71.6654 14.8006C71.5214 14.9086 71.4314 15.0346 71.3954 15.1786C71.3714 15.3226 71.3414 15.6766 71.3054 16.2406C71.2334 17.2606 71.1794 18.4246 71.1434 19.7326C71.1074 21.0406 71.0894 22.1926 71.0894 23.1886C71.0894 23.6206 71.1254 23.9326 71.1974 24.1246C71.2694 24.3046 71.4014 24.4246 71.5934 24.4846C71.7974 24.5446 72.1394 24.5746 72.6194 24.5746C73.3514 24.5746 73.8854 24.5146 74.2214 24.3946C74.5694 24.2746 74.8274 24.0406 74.9954 23.6926C75.1754 23.3446 75.3374 22.7866 75.4814 22.0186L76.2734 21.9286L76.3274 22.0186C76.2914 22.2106 76.2134 22.6426 76.0934 23.3146C75.9854 23.9866 75.8894 24.6946 75.8054 25.4386L75.7154 25.5466C75.3674 25.5226 74.6474 25.4866 73.5554 25.4386C72.4754 25.4026 71.5814 25.3846 70.8734 25.3846Z" fill="#063188"/>
<path d="M96.7127 40.4667C95.6807 40.5147 94.9847 40.5807 94.6247 40.6647C94.2647 40.7487 94.0187 40.9227 93.8867 41.1867C93.7547 41.4507 93.6347 41.9667 93.5267 42.7347L92.6807 42.8067C92.7047 42.6267 92.7467 42.2247 92.8067 41.6007C92.8787 40.9647 92.9267 40.3287 92.9507 39.6927L93.1127 39.5487L94.6067 39.7467H100.187L101.717 39.5487L101.879 39.6927C101.903 40.3287 101.945 40.9527 102.005 41.5647C102.077 42.1767 102.125 42.5667 102.149 42.7347L101.303 42.8067C101.171 42.0147 101.039 41.4807 100.907 41.2047C100.775 40.9287 100.541 40.7487 100.205 40.6647C99.8687 40.5807 99.2207 40.5147 98.2607 40.4667C98.1887 41.1867 98.1227 42.4587 98.0627 44.2827C98.0027 46.1067 97.9727 47.7507 97.9727 49.2147C97.9727 49.6587 98.0507 49.9767 98.2067 50.1687C98.3627 50.3487 98.6267 50.4387 98.9987 50.4387C99.2627 50.4387 99.4787 50.4327 99.6467 50.4207C99.8267 50.4087 99.9407 50.3967 99.9887 50.3847L100.043 50.4567L99.8807 51.2847C99.6887 51.2847 99.3287 51.2727 98.8007 51.2487C98.2727 51.2367 97.7507 51.2307 97.2347 51.2307C96.7307 51.2307 96.2387 51.2367 95.7587 51.2487C95.2787 51.2727 94.9487 51.2907 94.7687 51.3027L94.9127 50.5287C95.5127 50.4807 95.9267 50.4087 96.1547 50.3127C96.3827 50.2047 96.5327 50.0187 96.6047 49.7547C96.6767 49.4787 96.7127 48.9987 96.7127 48.3147V40.4667Z" fill="#063188"/>
<g clip-path="url(#clip0)">
<path d="M82.0492 38.65L82.1792 38.5282C82.277 38.4365 82.3931 38.3638 82.5209 38.3143C82.6487 38.2647 82.7857 38.2392 82.924 38.2393C83.0623 38.2393 83.1993 38.2649 83.327 38.3145C83.4548 38.3641 83.5709 38.4369 83.6687 38.5286C83.7664 38.6202 83.844 38.7291 83.8969 38.8488C83.9498 38.9686 83.977 39.097 83.9769 39.2266C83.9769 39.3562 83.9496 39.4845 83.8966 39.6043C83.8437 39.724 83.7661 39.8328 83.6682 39.9244L83.5382 40.0454C83.7606 40.2791 83.8791 40.5837 83.8696 40.8966C83.86 41.2096 83.723 41.5073 83.4868 41.7287L74.5087 50.1432C74.4526 50.1955 74.3823 50.2325 74.3055 50.2503L70.8162 51.0678C70.7431 51.0848 70.6667 51.0839 70.5941 51.065C70.5216 51.0462 70.4556 51.01 70.4023 50.9602C70.3491 50.9103 70.3106 50.8484 70.2905 50.7804C70.2704 50.7125 70.2693 50.6408 70.2875 50.5724L71.1599 47.3024C71.1789 47.2306 71.2184 47.1651 71.2741 47.1127L79.6852 39.2304C79.601 39.1749 79.4987 39.1491 79.3962 39.1574C79.2937 39.1658 79.1977 39.2079 79.1251 39.2762L76.2534 41.9682C76.2128 42.0062 76.1647 42.0363 76.1117 42.0569C76.0587 42.0775 76.0019 42.0881 75.9446 42.0881C75.8872 42.0881 75.8305 42.0775 75.7775 42.0569C75.7245 42.0363 75.6763 42.0062 75.6358 41.9682C75.5952 41.9302 75.5631 41.8851 75.5411 41.8354C75.5192 41.7858 75.5079 41.7325 75.5079 41.6788C75.5079 41.625 75.5192 41.5718 75.5411 41.5222C75.5631 41.4725 75.5952 41.4274 75.6358 41.3894L78.5093 38.6982C78.7456 38.4767 79.0635 38.3483 79.3977 38.3395C79.7319 38.3307 80.0569 38.4421 80.3063 38.6508C80.5459 38.45 80.8561 38.339 81.1775 38.3388C81.499 38.3387 81.8093 38.4494 82.0492 38.65V38.65Z" fill="#063188"/>
</g>
<g clip-path="url(#clip1)">
<path d="M101.22 13.783C100.168 12.936 98.6447 12.81 97.2575 12.94C95.6419 13.093 94.0114 13.612 92.9956 14.045C92.9024 14.0847 92.8233 14.1488 92.7679 14.2294C92.7124 14.3101 92.683 14.404 92.6829 14.5V25.5C92.6829 25.5837 92.7054 25.666 92.7481 25.7394C92.7909 25.8128 92.8527 25.875 92.9277 25.9203C93.0028 25.9656 93.0888 25.9925 93.1778 25.9986C93.2668 26.0046 93.3561 25.9896 93.4373 25.955C94.3785 25.555 95.8948 25.074 97.3642 24.935C98.8677 24.793 100.128 25.022 100.803 25.812C100.853 25.8704 100.917 25.9175 100.989 25.9499C101.061 25.9823 101.14 25.9991 101.22 25.9991C101.299 25.9991 101.378 25.9823 101.45 25.9499C101.522 25.9175 101.586 25.8704 101.636 25.812C102.311 25.022 103.571 24.793 105.074 24.935C106.544 25.074 108.062 25.555 109.002 25.955C109.083 25.9896 109.172 26.0046 109.261 25.9986C109.35 25.9925 109.436 25.9656 109.511 25.9203C109.586 25.875 109.648 25.8128 109.691 25.7394C109.734 25.666 109.756 25.5837 109.756 25.5V14.5C109.756 14.404 109.727 14.3101 109.671 14.2294C109.616 14.1488 109.537 14.0847 109.443 14.045C108.428 13.612 106.797 13.093 105.182 12.94C103.794 12.809 102.271 12.936 101.22 13.783Z" fill="#063188"/>
</g>
<path d="M12.832 86.288C13.024 86.88 13.28 87.296 13.6 87.536C13.92 87.776 14.432 87.928 15.136 87.992L15.184 88.088L15.016 89.072C14.824 89.072 14.472 89.056 13.96 89.024C13.464 89.008 12.968 89 12.472 89C11.704 89 10.96 89.032 10.24 89.096C9.536 89.16 9.088 89.208 8.896 89.24L8.824 89.072L8.92 88.136C9.736 88.072 10.296 87.976 10.6 87.848C10.904 87.72 11.056 87.512 11.056 87.224C11.056 86.904 10.984 86.52 10.84 86.072L10.048 83.456C9.664 83.44 8.832 83.432 7.552 83.432C6.784 83.432 5.912 83.496 4.936 83.624L4.048 86.12C3.904 86.552 3.832 86.864 3.832 87.056C3.832 87.408 3.944 87.664 4.168 87.824C4.392 87.968 4.76 88.04 5.272 88.04H6.64L6.688 88.136L6.544 89.168C6.352 89.152 5.912 89.12 5.224 89.072C4.536 89.024 3.864 89 3.208 89C2.616 89 2.064 89.008 1.552 89.024C1.056 89.04 0.728 89.056 0.568 89.072L0.76 87.944C1.208 87.896 1.568 87.744 1.84 87.488C2.112 87.216 2.376 86.752 2.632 86.096L7.312 73.832L8.824 73.424H9.016C9.112 73.808 9.352 74.696 9.736 76.088C10.136 77.48 10.616 79.128 11.176 81.032C11.752 82.936 12.304 84.688 12.832 86.288ZM7.48 82.448C8.04 82.448 8.784 82.408 9.712 82.328L7.816 76.04H7.648L5.368 82.448H7.48ZM15.619 88.304C16.067 88.176 16.379 88.016 16.555 87.824C16.747 87.632 16.859 87.4 16.891 87.128C16.939 86.856 16.963 86.4 16.963 85.76V73.976C16.963 73.112 16.667 72.68 16.075 72.68C15.963 72.68 15.843 72.696 15.715 72.728C15.587 72.744 15.507 72.76 15.475 72.776C15.475 72.68 15.491 72.536 15.523 72.344L15.571 71.888C16.259 71.792 16.971 71.664 17.707 71.504C18.443 71.344 18.915 71.24 19.123 71.192L19.267 71.504C19.091 71.776 18.931 73.48 18.787 76.616C18.659 79.752 18.595 83.096 18.595 86.648C18.595 87.128 18.659 87.472 18.787 87.68C18.915 87.888 19.131 87.992 19.435 87.992C19.611 87.992 19.779 87.984 19.939 87.968C20.099 87.952 20.211 87.944 20.275 87.944L20.323 88.04L20.131 89.072C19.987 89.056 19.715 89.04 19.315 89.024C18.915 89.008 18.475 89 17.995 89C17.579 89 17.099 89.04 16.555 89.12C16.027 89.2 15.683 89.256 15.523 89.288L15.619 88.304ZM23.3984 83.192C23.3984 84.536 23.7184 85.616 24.3584 86.432C25.0144 87.248 25.8784 87.656 26.9504 87.656C27.3984 87.656 27.8384 87.6 28.2704 87.488C28.7024 87.376 29.0624 87.264 29.3504 87.152C29.6384 87.024 29.8224 86.944 29.9024 86.912L30.0464 86.96L30.3104 87.656C30.1984 87.736 29.9344 87.912 29.5184 88.184C29.1184 88.44 28.6464 88.688 28.1024 88.928C27.5584 89.168 27.0704 89.288 26.6384 89.288C25.6464 89.288 24.7664 89.072 23.9984 88.64C23.2304 88.192 22.6384 87.568 22.2224 86.768C21.8064 85.952 21.5984 85.024 21.5984 83.984C21.5984 82.912 21.8384 81.904 22.3184 80.96C22.8144 80.016 23.4704 79.264 24.2864 78.704C25.1024 78.144 25.9744 77.864 26.9024 77.864C28.0704 77.864 28.9584 78.16 29.5664 78.752C30.1744 79.344 30.4784 80.208 30.4784 81.344C30.4784 81.6 30.4544 81.848 30.4064 82.088C30.3744 82.312 30.3504 82.456 30.3344 82.52L30.0224 82.808H23.3984V83.192ZM27.8384 81.704C28.0784 81.672 28.2384 81.616 28.3184 81.536C28.3984 81.456 28.4384 81.296 28.4384 81.056C28.4384 80.416 28.2624 79.928 27.9104 79.592C27.5744 79.256 27.0864 79.088 26.4464 79.088C25.6944 79.088 25.0464 79.344 24.5024 79.856C23.9744 80.368 23.6384 81.056 23.4944 81.92L27.8384 81.704ZM40.3242 89C40.7722 89 41.2042 89.008 41.6202 89.024C42.0522 89.04 42.3482 89.048 42.5082 89.048L42.6522 88.232L42.6042 88.136C42.1402 88.088 41.7242 87.928 41.3562 87.656C40.9882 87.384 40.5962 86.944 40.1802 86.336L37.9722 83.192L40.0362 80.768C40.9482 79.712 41.6202 79.112 42.0522 78.968L42.1962 78.2L42.1242 78.08C42.0122 78.096 41.7882 78.112 41.4522 78.128C41.1162 78.144 40.7722 78.152 40.4202 78.152H38.6682L38.5482 78.944L38.5962 79.04C38.9962 79.04 39.2682 79.064 39.4122 79.112C39.5562 79.144 39.6282 79.224 39.6282 79.352C39.6282 79.496 39.5722 79.656 39.4602 79.832C39.3642 79.992 39.1722 80.24 38.8842 80.576L37.4202 82.424L36.1002 80.504C35.9562 80.296 35.8202 80.096 35.6922 79.904C35.5802 79.696 35.5242 79.52 35.5242 79.376C35.5242 79.216 35.6042 79.104 35.7642 79.04C35.9402 78.96 36.2202 78.92 36.6042 78.92L36.7482 78.176L36.7002 78.056C36.5722 78.072 36.2762 78.096 35.8122 78.128C35.3482 78.144 34.8282 78.152 34.2522 78.152C33.7882 78.152 33.3082 78.144 32.8122 78.128C32.3322 78.112 32.0042 78.104 31.8282 78.104L31.6842 78.92L31.7322 79.016C32.2922 79.112 32.7242 79.288 33.0282 79.544C33.3482 79.8 33.7802 80.32 34.3242 81.104L36.1482 83.696L34.0842 86.096C33.9882 86.208 33.7722 86.456 33.4362 86.84C33.1162 87.224 32.8362 87.512 32.5962 87.704C32.3722 87.896 32.1242 88.064 31.8522 88.208L31.7082 88.952L31.7802 89.072C31.8762 89.056 32.0522 89.04 32.3082 89.024C32.5802 89.008 32.8842 89 33.2202 89C33.5882 89 33.9722 89.008 34.3722 89.024C34.7722 89.056 35.0522 89.08 35.2122 89.096L35.3562 88.304L35.3082 88.208C34.8762 88.176 34.5882 88.136 34.4442 88.088C34.3162 88.04 34.2522 87.936 34.2522 87.776C34.2522 87.584 34.4602 87.224 34.8762 86.696C35.2922 86.152 35.8922 85.4 36.6762 84.44L38.4282 86.888C38.7002 87.272 38.8362 87.568 38.8362 87.776C38.8362 87.952 38.7482 88.08 38.5722 88.16C38.4122 88.224 38.1322 88.264 37.7322 88.28L37.5882 89.024L37.6362 89.144C37.8282 89.128 38.2202 89.096 38.8122 89.048C39.4202 89.016 39.9242 89 40.3242 89ZM49.4884 81.992C49.4884 81.192 49.3044 80.568 48.9364 80.12C48.5684 79.672 48.0484 79.448 47.3764 79.448C46.9284 79.448 46.4324 79.56 45.8884 79.784C45.3444 80.008 44.8804 80.296 44.4964 80.648L44.3764 80.576L44.0884 79.544C44.9044 79.064 45.6804 78.664 46.4164 78.344C47.1684 78.024 47.6964 77.864 48.0004 77.864C49.0404 77.864 49.8564 78.136 50.4484 78.68C51.0404 79.224 51.3364 79.984 51.3364 80.96C51.3364 81.312 51.2804 82.032 51.1684 83.12C50.9924 84.88 50.9044 86 50.9044 86.48C50.9044 86.832 50.9924 87.104 51.1684 87.296C51.3444 87.488 51.5844 87.584 51.8884 87.584C52.1124 87.584 52.3524 87.528 52.6084 87.416C52.8804 87.304 53.1204 87.16 53.3284 86.984L53.6644 87.368C53.4084 87.816 53.0804 88.224 52.6804 88.592C52.2964 88.944 51.9284 89.176 51.5764 89.288C50.2804 89.288 49.5684 88.64 49.4404 87.344L49.3444 87.32C48.7684 87.896 48.2404 88.352 47.7604 88.688C47.2964 89.024 46.9444 89.192 46.7044 89.192C45.8084 89.192 45.0724 88.912 44.4964 88.352C43.9204 87.792 43.6324 87.08 43.6324 86.216C43.6324 85.752 43.7444 85.344 43.9684 84.992C44.2084 84.64 44.5204 84.408 44.9044 84.296L49.4404 83.048L49.4884 81.992ZM46.1524 84.944C45.6884 85.088 45.4564 85.424 45.4564 85.952C45.4564 86.416 45.6084 86.8 45.9124 87.104C46.2324 87.408 46.6324 87.56 47.1124 87.56C47.4164 87.56 47.7684 87.456 48.1684 87.248C48.5844 87.024 48.9604 86.744 49.2964 86.408L49.3924 83.96L46.1524 84.944ZM61.6281 88.304C62.1081 88.176 62.4521 87.992 62.6601 87.752C62.8681 87.496 62.9721 87.16 62.9721 86.744L63.0681 81.992C63.0681 81.192 62.8921 80.576 62.5401 80.144C62.2041 79.712 61.7161 79.496 61.0761 79.496C60.5641 79.496 60.0441 79.632 59.5161 79.904C58.9881 80.16 58.5241 80.44 58.1241 80.744C57.9801 84.056 57.9081 86.024 57.9081 86.648C57.9081 87.144 57.9721 87.496 58.1001 87.704C58.2281 87.896 58.4521 87.992 58.7721 87.992C58.9481 87.992 59.1161 87.984 59.2761 87.968C59.4361 87.952 59.5481 87.944 59.6121 87.944L59.6601 88.04L59.4441 89.072C59.3001 89.056 59.0201 89.04 58.6041 89.024C58.1881 89.008 57.7401 89 57.2601 89C56.8441 89 56.3801 89.016 55.8681 89.048C55.3721 89.096 55.0441 89.128 54.8841 89.144L55.0041 88.16C55.4681 88.08 55.7961 87.936 55.9881 87.728C56.1801 87.52 56.2761 87.192 56.2761 86.744V80.888C56.2761 80.344 56.1881 79.968 56.0121 79.76C55.8361 79.536 55.5321 79.424 55.1001 79.424H54.8361L54.7641 79.328L54.8361 78.536C55.5241 78.424 56.2041 78.296 56.8761 78.152C57.5641 77.992 58.0041 77.888 58.1961 77.84L58.3401 78.032C58.3081 78.128 58.2601 78.336 58.1961 78.656C58.1321 78.96 58.0921 79.28 58.0761 79.616L58.1241 79.688C59.9481 78.472 61.1241 77.864 61.6521 77.864C62.6601 77.864 63.4601 78.144 64.0521 78.704C64.6441 79.264 64.9401 80.016 64.9401 80.96C64.9401 81.12 64.8921 81.856 64.7961 83.168C64.6681 84.832 64.6041 85.992 64.6041 86.648C64.6041 87.112 64.6681 87.456 64.7961 87.68C64.9241 87.888 65.1401 87.992 65.4441 87.992C65.6201 87.992 65.7881 87.984 65.9481 87.968C66.1081 87.952 66.2201 87.944 66.2841 87.944L66.3321 88.04L66.1401 89.072C65.9961 89.056 65.7241 89.04 65.3241 89.024C64.9241 89.008 64.4841 89 64.0041 89C63.5881 89 63.1081 89.04 62.5641 89.12C62.0361 89.2 61.6921 89.256 61.5321 89.288L61.6281 88.304ZM75.8007 87.512C74.1367 88.648 73.1367 89.216 72.8007 89.216C71.8887 89.216 71.0807 89.008 70.3767 88.592C69.6727 88.16 69.1287 87.56 68.7447 86.792C68.3607 86.024 68.1687 85.144 68.1687 84.152C68.1687 83.016 68.4327 81.968 68.9607 81.008C69.5047 80.048 70.2327 79.288 71.1447 78.728C72.0727 78.152 73.0727 77.864 74.1447 77.864C74.6567 77.864 75.2087 77.896 75.8007 77.96V73.976C75.8007 73.112 75.5047 72.68 74.9127 72.68C74.8007 72.68 74.6807 72.696 74.5527 72.728C74.4247 72.744 74.3447 72.76 74.3127 72.776L74.4087 71.888C75.0967 71.792 75.8087 71.664 76.5447 71.504C77.2807 71.344 77.7527 71.24 77.9607 71.192L78.1047 71.504C77.9287 71.776 77.7687 73.464 77.6247 76.568C77.4967 79.672 77.4327 82.976 77.4327 86.48C77.4327 86.832 77.5207 87.104 77.6967 87.296C77.8727 87.488 78.1127 87.584 78.4167 87.584C78.6407 87.584 78.8567 87.544 79.0647 87.464C79.2887 87.368 79.4647 87.272 79.5927 87.176C79.7367 87.08 79.8247 87.016 79.8567 86.984L80.1927 87.368C80.1447 87.448 80.0247 87.624 79.8327 87.896C79.6407 88.152 79.3847 88.424 79.0647 88.712C78.7607 89 78.4407 89.192 78.1047 89.288C76.8567 89.288 76.1447 88.72 75.9687 87.584L75.8007 87.512ZM75.8007 79.808C75.7527 79.776 75.6327 79.72 75.4407 79.64C75.2487 79.544 74.9767 79.456 74.6247 79.376C74.2887 79.296 73.9047 79.256 73.4727 79.256C72.4007 79.256 71.5527 79.624 70.9287 80.36C70.3207 81.08 70.0167 82.072 70.0167 83.336C70.0167 84.136 70.1527 84.864 70.4247 85.52C70.7127 86.176 71.0967 86.696 71.5767 87.08C72.0727 87.464 72.6087 87.656 73.1847 87.656C73.5207 87.656 73.8807 87.56 74.2647 87.368C74.6647 87.176 75.0007 86.984 75.2727 86.792C75.5447 86.584 75.7207 86.448 75.8007 86.384V79.808ZM81.6113 88.136C82.0913 88.088 82.4113 87.936 82.5713 87.68C82.7313 87.408 82.8113 86.896 82.8113 86.144V80.864C82.8113 80.336 82.7393 79.96 82.5953 79.736C82.4513 79.512 82.2193 79.4 81.8993 79.4C81.7713 79.4 81.6593 79.408 81.5633 79.424C81.4833 79.44 81.4273 79.456 81.3953 79.472L81.2753 79.304L81.3473 78.56C81.9553 78.448 82.5953 78.312 83.2673 78.152C83.9553 77.992 84.3953 77.888 84.5873 77.84L84.7553 77.984C84.7233 78.128 84.6753 78.464 84.6113 78.992C84.5473 79.504 84.5233 79.992 84.5393 80.456L84.6353 80.528C85.1153 79.776 85.6753 79.16 86.3153 78.68C86.9713 78.2 87.5393 77.96 88.0193 77.96C88.2433 77.96 88.4113 77.976 88.5233 78.008C88.6513 78.024 88.7313 78.04 88.7633 78.056L88.8353 78.152C88.8033 78.376 88.7313 78.856 88.6193 79.592C88.5233 80.312 88.4673 80.976 88.4513 81.584L87.5153 81.656C87.5153 81 87.4673 80.568 87.3713 80.36C87.2913 80.136 87.1233 80.024 86.8673 80.024C86.5153 80.024 86.1393 80.176 85.7393 80.48C85.3393 80.768 84.9713 81.16 84.6353 81.656C84.6193 82.12 84.5873 82.888 84.5393 83.96C84.4913 85.032 84.4593 85.896 84.4433 86.552C84.4433 87.096 84.5233 87.464 84.6833 87.656C84.8433 87.848 85.1473 87.944 85.5953 87.944C85.8033 87.944 86.0113 87.936 86.2193 87.92C86.4273 87.904 86.5713 87.896 86.6513 87.896L86.6753 87.992L86.4593 89.048C86.2993 89.048 85.9793 89.04 85.4993 89.024C85.0193 89.008 84.5233 89 84.0113 89C83.4193 89 82.8833 89.008 82.4033 89.024C81.9233 89.056 81.6193 89.08 81.4913 89.096L81.6113 88.136ZM91.5428 80.672C91.5428 79.808 91.2468 79.376 90.6548 79.376C90.5428 79.376 90.4228 79.392 90.2948 79.424C90.1668 79.44 90.0868 79.456 90.0548 79.472L90.1508 78.584C90.7748 78.488 91.4468 78.36 92.1668 78.2C92.8868 78.024 93.3588 77.912 93.5828 77.864L93.7268 78.152C93.5668 78.568 93.4228 79.512 93.2948 80.984C93.1668 82.456 93.1028 83.888 93.1028 85.28C93.1028 86.848 93.7428 87.632 95.0228 87.632C95.5028 87.632 95.9508 87.52 96.3668 87.296C96.7828 87.056 97.3028 86.712 97.9268 86.264V80.696C97.9268 80.216 97.8388 79.88 97.6628 79.688C97.4868 79.496 97.1748 79.4 96.7268 79.4L96.1508 79.424L96.2468 78.56C96.9508 78.464 97.6868 78.336 98.4548 78.176C99.2228 78.016 99.7188 77.912 99.9428 77.864L100.087 78.152C99.9428 78.52 99.8148 79.52 99.7028 81.152C99.6068 82.784 99.5588 84.56 99.5588 86.48C99.5588 86.832 99.6468 87.104 99.8228 87.296C99.9988 87.488 100.239 87.584 100.543 87.584C100.767 87.584 100.983 87.544 101.191 87.464C101.415 87.368 101.591 87.272 101.719 87.176C101.863 87.08 101.951 87.016 101.983 86.984L102.319 87.368C102.255 87.464 102.103 87.664 101.863 87.968C101.639 88.272 101.367 88.568 101.047 88.856C100.743 89.144 100.471 89.288 100.231 89.288C98.9348 89.288 98.2228 88.64 98.0948 87.344L97.9748 87.296C97.2068 87.888 96.5108 88.368 95.8868 88.736C95.2788 89.104 94.8628 89.288 94.6388 89.288C93.6148 89.288 92.8228 89.048 92.2628 88.568C91.7188 88.088 91.4468 87.4 91.4468 86.504L91.5428 80.672ZM114.827 89.288C114.587 89.256 114.075 89.2 113.291 89.12C112.523 89.04 111.883 89 111.371 89C110.875 89 110.331 89.04 109.739 89.12C109.163 89.2 108.787 89.256 108.611 89.288L108.755 88.184C109.491 88.04 109.987 87.832 110.243 87.56C110.499 87.272 110.627 86.792 110.627 86.12L110.651 76.04C110.651 75.528 110.587 75.184 110.459 75.008C110.347 74.832 110.115 74.744 109.763 74.744C109.603 74.744 109.443 74.752 109.283 74.768C109.123 74.784 109.011 74.792 108.947 74.792L108.899 74.696L109.067 73.64C109.243 73.656 109.579 73.672 110.075 73.688C110.571 73.704 111.075 73.712 111.587 73.712C112.275 73.712 112.987 73.704 113.723 73.688C114.459 73.656 114.963 73.632 115.235 73.616C116.771 73.616 118.139 73.92 119.339 74.528C120.539 75.12 121.467 75.96 122.123 77.048C122.795 78.136 123.131 79.384 123.131 80.792C123.131 82.36 122.763 83.792 122.027 85.088C121.291 86.384 120.291 87.408 119.027 88.16C117.763 88.912 116.363 89.288 114.827 89.288ZM113.579 74.792C113.243 74.792 113.019 74.832 112.907 74.912C112.795 74.976 112.731 75.112 112.715 75.32C112.475 81.48 112.355 84.992 112.355 85.856C112.355 86.464 112.435 86.92 112.595 87.224C112.771 87.528 113.067 87.744 113.483 87.872C113.915 88 114.547 88.064 115.379 88.064C117.107 88.064 118.467 87.472 119.459 86.288C120.451 85.088 120.947 83.448 120.947 81.368C120.947 79.256 120.307 77.632 119.027 76.496C117.763 75.36 115.947 74.792 113.579 74.792ZM129.614 89.288C128.702 89.288 127.894 89.064 127.19 88.616C126.486 88.168 125.934 87.544 125.534 86.744C125.15 85.928 124.958 85 124.958 83.96C124.958 82.84 125.198 81.816 125.678 80.888C126.174 79.944 126.846 79.208 127.694 78.68C128.542 78.136 129.486 77.864 130.526 77.864C131.422 77.864 132.222 78.088 132.926 78.536C133.646 78.984 134.198 79.616 134.582 80.432C134.982 81.232 135.182 82.152 135.182 83.192C135.182 84.312 134.934 85.344 134.438 86.288C133.958 87.216 133.294 87.952 132.446 88.496C131.598 89.024 130.654 89.288 129.614 89.288ZM130.286 88.112C131.182 88.112 131.894 87.752 132.422 87.032C132.95 86.296 133.214 85.304 133.214 84.056C133.214 83.112 133.07 82.272 132.782 81.536C132.494 80.784 132.086 80.2 131.558 79.784C131.046 79.368 130.462 79.16 129.806 79.16C128.91 79.16 128.198 79.528 127.67 80.264C127.142 81 126.878 82 126.878 83.264C126.878 84.208 127.022 85.048 127.31 85.784C127.598 86.52 127.998 87.096 128.51 87.512C129.022 87.912 129.614 88.112 130.286 88.112ZM143.847 88.304C144.327 88.176 144.671 87.992 144.879 87.752C145.087 87.496 145.191 87.16 145.191 86.744L145.287 81.992C145.287 81.192 145.111 80.576 144.759 80.144C144.423 79.712 143.935 79.496 143.295 79.496C142.783 79.496 142.263 79.632 141.735 79.904C141.207 80.16 140.743 80.44 140.343 80.744C140.199 84.056 140.127 86.024 140.127 86.648C140.127 87.144 140.191 87.496 140.319 87.704C140.447 87.896 140.671 87.992 140.991 87.992C141.167 87.992 141.335 87.984 141.495 87.968C141.655 87.952 141.767 87.944 141.831 87.944L141.879 88.04L141.663 89.072C141.519 89.056 141.239 89.04 140.823 89.024C140.407 89.008 139.959 89 139.479 89C139.063 89 138.599 89.016 138.087 89.048C137.591 89.096 137.263 89.128 137.103 89.144L137.223 88.16C137.687 88.08 138.015 87.936 138.207 87.728C138.399 87.52 138.495 87.192 138.495 86.744V80.888C138.495 80.344 138.407 79.968 138.231 79.76C138.055 79.536 137.751 79.424 137.319 79.424H137.055L136.983 79.328L137.055 78.536C137.743 78.424 138.423 78.296 139.095 78.152C139.783 77.992 140.223 77.888 140.415 77.84L140.559 78.032C140.527 78.128 140.479 78.336 140.415 78.656C140.351 78.96 140.311 79.28 140.295 79.616L140.343 79.688C142.167 78.472 143.343 77.864 143.871 77.864C144.879 77.864 145.679 78.144 146.271 78.704C146.863 79.264 147.159 80.016 147.159 80.96C147.159 81.12 147.111 81.856 147.015 83.168C146.887 84.832 146.823 85.992 146.823 86.648C146.823 87.112 146.887 87.456 147.015 87.68C147.143 87.888 147.359 87.992 147.663 87.992C147.839 87.992 148.007 87.984 148.167 87.968C148.327 87.952 148.439 87.944 148.503 87.944L148.551 88.04L148.359 89.072C148.215 89.056 147.943 89.04 147.543 89.024C147.143 89.008 146.703 89 146.223 89C145.807 89 145.327 89.04 144.783 89.12C144.255 89.2 143.911 89.256 143.751 89.288L143.847 88.304ZM152.715 74.552C152.363 74.552 152.075 74.44 151.851 74.216C151.643 73.992 151.539 73.696 151.539 73.328C151.539 72.928 151.675 72.592 151.947 72.32C152.219 72.048 152.555 71.912 152.955 71.912C153.291 71.912 153.571 72.032 153.795 72.272C154.019 72.496 154.131 72.784 154.131 73.136C154.131 73.536 153.995 73.872 153.723 74.144C153.451 74.416 153.115 74.552 152.715 74.552ZM150.675 88.304C151.155 88.176 151.499 87.992 151.707 87.752C151.915 87.496 152.019 87.16 152.019 86.744V80.648C152.019 79.784 151.723 79.352 151.131 79.352C151.019 79.352 150.899 79.368 150.771 79.4C150.643 79.416 150.563 79.432 150.531 79.448L150.627 78.56C151.299 78.464 151.987 78.336 152.691 78.176C153.411 78.016 153.875 77.912 154.083 77.864L154.203 78.152C154.059 78.488 153.931 79.52 153.819 81.248C153.707 82.96 153.651 84.76 153.651 86.648C153.651 87.112 153.715 87.456 153.843 87.68C153.971 87.888 154.187 87.992 154.491 87.992C154.667 87.992 154.835 87.984 154.995 87.968C155.155 87.952 155.267 87.944 155.331 87.944L155.379 88.04L155.187 89.072C155.043 89.056 154.771 89.04 154.371 89.024C153.971 89.008 153.531 89 153.051 89C152.635 89 152.155 89.04 151.611 89.12C151.083 89.2 150.739 89.256 150.579 89.288L150.675 88.304ZM165.465 87.68C165.353 87.76 165.105 87.928 164.721 88.184C164.353 88.44 163.921 88.688 163.425 88.928C162.945 89.168 162.529 89.288 162.177 89.288C160.657 89.288 159.441 88.808 158.529 87.848C157.617 86.888 157.161 85.6 157.161 83.984C157.161 82.848 157.401 81.816 157.881 80.888C158.377 79.944 159.041 79.208 159.873 78.68C160.721 78.136 161.665 77.864 162.705 77.864C163.153 77.864 163.585 77.896 164.001 77.96C164.417 78.024 164.753 78.096 165.009 78.176C165.281 78.24 165.449 78.288 165.513 78.32L165.585 78.488C165.569 78.568 165.521 78.76 165.441 79.064C165.377 79.352 165.305 79.744 165.225 80.24C165.145 80.72 165.097 81.24 165.081 81.8L164.097 81.872V81.128C164.097 80.536 163.913 80.064 163.545 79.712C163.193 79.344 162.721 79.16 162.129 79.16C161.153 79.16 160.401 79.512 159.873 80.216C159.345 80.904 159.081 81.888 159.081 83.168C159.081 84.56 159.369 85.664 159.945 86.48C160.537 87.28 161.337 87.68 162.345 87.68C162.745 87.68 163.145 87.624 163.545 87.512C163.945 87.384 164.281 87.264 164.553 87.152C164.825 87.024 164.993 86.936 165.057 86.888L165.201 86.936L165.465 87.68ZM169.661 74.552C169.309 74.552 169.021 74.44 168.797 74.216C168.589 73.992 168.485 73.696 168.485 73.328C168.485 72.928 168.621 72.592 168.893 72.32C169.165 72.048 169.501 71.912 169.901 71.912C170.237 71.912 170.517 72.032 170.741 72.272C170.965 72.496 171.077 72.784 171.077 73.136C171.077 73.536 170.941 73.872 170.669 74.144C170.397 74.416 170.061 74.552 169.661 74.552ZM167.621 88.304C168.101 88.176 168.445 87.992 168.653 87.752C168.861 87.496 168.965 87.16 168.965 86.744V80.648C168.965 79.784 168.669 79.352 168.077 79.352C167.965 79.352 167.845 79.368 167.717 79.4C167.589 79.416 167.509 79.432 167.477 79.448L167.573 78.56C168.245 78.464 168.933 78.336 169.637 78.176C170.357 78.016 170.821 77.912 171.029 77.864L171.149 78.152C171.005 78.488 170.877 79.52 170.765 81.248C170.653 82.96 170.597 84.76 170.597 86.648C170.597 87.112 170.661 87.456 170.789 87.68C170.917 87.888 171.133 87.992 171.437 87.992C171.613 87.992 171.781 87.984 171.941 87.968C172.101 87.952 172.213 87.944 172.277 87.944L172.325 88.04L172.133 89.072C171.989 89.056 171.717 89.04 171.317 89.024C170.917 89.008 170.477 89 169.997 89C169.581 89 169.101 89.04 168.557 89.12C168.029 89.2 167.685 89.256 167.525 89.288L167.621 88.304Z" fill="#063188"/>
<defs>
<clipPath id="clip0">
<rect width="13.9573" height="13.08" fill="white" transform="translate(70.2744 38)"/>
</clipPath>
<clipPath id="clip1">
<rect width="17.0732" height="16" fill="white" transform="translate(92.6829 12)"/>
</clipPath>
</defs>
</svg>
