<svg width="16" height="16" viewBox="0 0 16 16" fill="none" xmlns="http://www.w3.org/2000/svg">
<g clip-path="url(#clip0)">
<path d="M12.146 0.145978C12.1924 0.099415 12.2476 0.0624722 12.3084 0.0372657C12.3691 0.0120593 12.4342 -0.000915527 12.5 -0.000915527C12.5658 -0.000915527 12.6309 0.0120593 12.6916 0.0372657C12.7524 0.0624722 12.8075 0.099415 12.854 0.145978L15.854 3.14598C15.9006 3.19242 15.9375 3.2476 15.9627 3.30834C15.9879 3.36909 16.0009 3.43421 16.0009 3.49998C16.0009 3.56575 15.9879 3.63087 15.9627 3.69161C15.9375 3.75236 15.9006 3.80753 15.854 3.85398L5.85399 13.854C5.806 13.9016 5.74885 13.939 5.68599 13.964L0.685989 15.964C0.595125 16.0003 0.495585 16.0093 0.399709 15.9896C0.303832 15.9699 0.215836 15.9225 0.14663 15.8533C0.0774234 15.7841 0.0300499 15.6961 0.0103825 15.6003C-0.00928499 15.5044 -0.000381488 15.4048 0.0359892 15.314L2.03599 10.314C2.06092 10.2511 2.09834 10.194 2.14599 10.146L12.146 0.145978V0.145978ZM11.207 2.49998L13.5 4.79298L14.793 3.49998L12.5 1.20698L11.207 2.49998ZM12.793 5.49998L10.5 3.20698L3.99999 9.70698V9.99998H4.49999C4.6326 9.99998 4.75977 10.0527 4.85354 10.1464C4.94731 10.2402 4.99999 10.3674 4.99999 10.5V11H5.49999C5.6326 11 5.75977 11.0527 5.85354 11.1464C5.94731 11.2402 5.99999 11.3674 5.99999 11.5V12H6.29299L12.793 5.49998V5.49998ZM3.03199 10.675L2.92599 10.781L1.39799 14.602L5.21899 13.074L5.32499 12.968C5.22961 12.9323 5.14738 12.8684 5.0893 12.7848C5.03123 12.7012 5.00007 12.6018 4.99999 12.5V12H4.49999C4.36738 12 4.2402 11.9473 4.14644 11.8535C4.05267 11.7598 3.99999 11.6326 3.99999 11.5V11H3.49999C3.39817 10.9999 3.2988 10.9687 3.21517 10.9107C3.13153 10.8526 3.06763 10.7704 3.03199 10.675V10.675Z" fill="#586EDD" fill-opacity="0.65"/>
</g>
<defs>
<clipPath id="clip0">
<rect width="16" height="16" fill="white"/>
</clipPath>
</defs>
</svg>
